<?xml version="1.0" encoding="UTF-8" standalone="no"?>
<svg
   xmlns:dc="http://purl.org/dc/elements/1.1/"
   xmlns:cc="http://creativecommons.org/ns#"
   xmlns:rdf="http://www.w3.org/1999/02/22-rdf-syntax-ns#"
   xmlns:svg="http://www.w3.org/2000/svg"
   xmlns="http://www.w3.org/2000/svg"
   xmlns:sodipodi="http://sodipodi.sourceforge.net/DTD/sodipodi-0.dtd"
   xmlns:inkscape="http://www.inkscape.org/namespaces/inkscape"
   version="1.0"
   width="1280.000000pt"
   height="1280.000000pt"
   viewBox="0 0 1280.000000 1280.000000"
   preserveAspectRatio="xMidYMid meet"
   id="svg177"
   sodipodi:docname="rss.svg"
   inkscape:version="1.0.2 (e86c870879, 2021-01-15)">
  <metadata
     id="metadata183">
    <rdf:RDF>
      <cc:Work
         rdf:about="">
        <dc:format>image/svg+xml</dc:format>
        <dc:type
           rdf:resource="http://purl.org/dc/dcmitype/StillImage" />
      </cc:Work>
    </rdf:RDF>
  </metadata>
  <defs
     id="defs181" />
  <sodipodi:namedview
     pagecolor="#ffffff"
     bordercolor="#666666"
     borderopacity="1"
     objecttolerance="10"
     gridtolerance="10"
     guidetolerance="10"
     inkscape:pageopacity="0"
     inkscape:pageshadow="2"
     inkscape:window-width="1024"
     inkscape:window-height="748"
     id="namedview179"
     showgrid="false"
     inkscape:zoom="0.3140625"
     inkscape:cx="498.30846"
     inkscape:cy="853.33333"
     inkscape:window-x="0"
     inkscape:window-y="20"
     inkscape:window-maximized="0"
     inkscape:current-layer="svg177" />
  <g
     transform="translate(0.000000,1280.000000) scale(0.100000,-0.100000)"
     fill="#000000"
     stroke="none"
     id="g175"
     style="fill:#ffffff">
    <path
       d="M2295 11929 c-284 -12 -642 -45 -707 -65 -17 -5 -18 -63 -18 -1039 0 -569 4 -1036 8 -1039 5 -3 74 6 153 19 510 86 1168 95 1789 25 1348 -153 2602 -677 3670 -1531 385 -308 820 -744 1126 -1129 842 -1060 1362 -2313 1514 -3650 70 -621 61 -1279 -25 -1789 -13 -79 -22 -148 -19 -153 3 -4 471 -8 1039 -8 l1035 0 5 23 c51 225 85 942 67 1419 -23 605 -77 1044 -198 1617 -294 1400 -927 2734 -1823 3846 -1043 1295 -2364 2259 -3909 2854 -1158 447 -2451 656 -3707 600z"
       id="path169"
       style="fill:#ffffff" />
    <path
       d="M2255 7845 c-269 -25 -620 -81 -667 -106 -17 -9 -18 -55 -18 -899 0 -706 3 -890 13 -890 6 0 66 18 132 41 130 44 288 79 467 105 154 21 577 30 749 15 1207 -107 2267 -823 2814 -1902 166 -327 268 -637 330 -1001 38 -227 48 -384 42 -662 -8 -348 -44 -590 -126 -831 -23 -66 -41 -126 -41 -132 0 -10 184 -13 890 -13 844 0 890 1 899 18 27 50 88 452 110 725 14 162 14 624 1 782 -59 703 -233 1323 -545 1945 -481 956 -1313 1788 -2270 2268 -620 310 -1239 483 -1940 542 -165 14 -669 10 -840 -5z"
       id="path171"
       style="fill:#ffffff" />
    <path
       d="M2519 3815 c-391 -66 -725 -336 -868 -703 -79 -201 -96 -462 -45 -677 83 -344 338 -641 666 -774 116 -47 205 -69 330 -80 412 -39 811 153 1040 500 193 292 240 648 128 981 -135 403 -492 699 -914 757 -100 14 -241 12 -337 -4z"
       id="path173"
       style="fill:#ffffff" />
  </g>
</svg>
