<?xml version="1.0" encoding="UTF-8" standalone="no"?>
<svg
   xmlns:dc="http://purl.org/dc/elements/1.1/"
   xmlns:cc="http://creativecommons.org/ns#"
   xmlns:rdf="http://www.w3.org/1999/02/22-rdf-syntax-ns#"
   xmlns:svg="http://www.w3.org/2000/svg"
   xmlns="http://www.w3.org/2000/svg"
   xmlns:sodipodi="http://sodipodi.sourceforge.net/DTD/sodipodi-0.dtd"
   xmlns:inkscape="http://www.inkscape.org/namespaces/inkscape"
   width="32px"
   height="32px"
   viewBox="0 0 32 32"
   version="1.1"
   id="svg561"
   sodipodi:docname="redbubble-svgrepo-com.svg"
   inkscape:version="1.0.2 (e86c870879, 2021-01-15)">
  <metadata
     id="metadata567">
    <rdf:RDF>
      <cc:Work
         rdf:about="">
        <dc:format>image/svg+xml</dc:format>
        <dc:type
           rdf:resource="http://purl.org/dc/dcmitype/StillImage" />
      </cc:Work>
    </rdf:RDF>
  </metadata>
  <defs
     id="defs565" />
  <sodipodi:namedview
     pagecolor="#ffffff"
     bordercolor="#666666"
     borderopacity="1"
     objecttolerance="10"
     gridtolerance="10"
     guidetolerance="10"
     inkscape:pageopacity="0"
     inkscape:pageshadow="2"
     inkscape:window-width="1024"
     inkscape:window-height="748"
     id="namedview563"
     showgrid="false"
     inkscape:zoom="16.75"
     inkscape:cx="9.3432836"
     inkscape:cy="16"
     inkscape:window-x="0"
     inkscape:window-y="20"
     inkscape:window-maximized="0"
     inkscape:current-layer="svg561" />
  <path
     d="M22.177 21.766h-4.266c-0.234 0-0.427-0.193-0.427-0.427v-10.708c0-0.234 0.193-0.427 0.427-0.427h3.953c2.969 0 3.594 1.75 3.594 3.214 0 0.849-0.224 1.521-0.672 2.016 1.089 0.448 1.672 1.458 1.672 2.922 0 2.135-1.599 3.411-4.281 3.411zM15.984 21.766h-8.859c-0.234 0-0.427-0.193-0.427-0.427v-10.708c0-0.234 0.193-0.427 0.427-0.427h4.141c2.583 0 4.125 1.391 4.125 3.724 0 1.552-0.776 2.771-2.036 3.266l2.948 3.859c0.24 0.276 0.047 0.708-0.318 0.714zM16 0c-8.839 0-16 7.161-16 16s7.161 16 16 16c8.839 0 16-7.161 16-16s-7.161-16-16-16z"
     id="path559"
     style="fill:#808080" />
</svg>
