<?xml version="1.0" encoding="UTF-8" standalone="no"?>
<svg
   xmlns:dc="http://purl.org/dc/elements/1.1/"
   xmlns:cc="http://creativecommons.org/ns#"
   xmlns:rdf="http://www.w3.org/1999/02/22-rdf-syntax-ns#"
   xmlns:svg="http://www.w3.org/2000/svg"
   xmlns="http://www.w3.org/2000/svg"
   xmlns:sodipodi="http://sodipodi.sourceforge.net/DTD/sodipodi-0.dtd"
   xmlns:inkscape="http://www.inkscape.org/namespaces/inkscape"
   width="168.53893mm"
   height="168.53894mm"
   viewBox="0 0 168.53893 168.53894"
   version="1.1"
   id="svg8"
   inkscape:version="1.0.2 (e86c870879, 2021-01-15)"
   sodipodi:docname="theGlassPixel.svg"
   inkscape:export-filename="/home/fx/pictures/theGlassPixel.png"
   inkscape:export-xdpi="300.01236"
   inkscape:export-ydpi="300.01236">
  <defs
     id="defs2">
    <filter
       x="-0.30000001"
       width="1.6"
       y="-0.30000001"
       height="1.6"
       style="color-interpolation-filters:sRGB"
       inkscape:label="Felt Feather"
       id="filter4875">
      <feGaussianBlur
         stdDeviation="3.97 6.69"
         result="blur"
         id="feGaussianBlur4859" />
      <feComposite
         in="SourceGraphic"
         in2="blur"
         operator="atop"
         result="composite1"
         id="feComposite4861" />
      <feComposite
         in2="composite1"
         operator="in"
         result="composite2"
         id="feComposite4863" />
      <feComposite
         in2="composite2"
         operator="in"
         result="composite3"
         id="feComposite4865" />
      <feTurbulence
         type="fractalNoise"
         numOctaves="3"
         seed="35"
         baseFrequency="0.4949 0.614"
         result="turbulence"
         id="feTurbulence4867" />
      <feDisplacementMap
         in="composite3"
         in2="turbulence"
         xChannelSelector="R"
         scale="42.5"
         yChannelSelector="G"
         result="map"
         id="feDisplacementMap4869" />
      <feColorMatrix
         values="1 0 0 0 0 0 1 0 0 0 0 0 1 0 0 0 0 0 40.41 -11.14 "
         result="colormatrix"
         id="feColorMatrix4871" />
      <feComposite
         in="composite3"
         in2="colormatrix"
         operator="atop"
         result="fbSourceGraphic"
         id="feComposite4873" />
      <feColorMatrix
         result="fbSourceGraphicAlpha"
         in="fbSourceGraphic"
         values="0 0 0 -1 0 0 0 0 -1 0 0 0 0 -1 0 0 0 0 1 0"
         id="feColorMatrix4877" />
      <feGaussianBlur
         id="feGaussianBlur4879"
         stdDeviation="3.97 6.69"
         result="blur"
         in="fbSourceGraphic" />
      <feComposite
         in2="blur"
         id="feComposite4881"
         in="fbSourceGraphic"
         operator="atop"
         result="composite1" />
      <feComposite
         in2="composite1"
         id="feComposite4883"
         operator="in"
         result="composite2" />
      <feComposite
         in2="composite2"
         id="feComposite4885"
         operator="in"
         result="composite3" />
      <feTurbulence
         id="feTurbulence4887"
         type="fractalNoise"
         numOctaves="3"
         seed="35"
         baseFrequency="0.4949 0.614"
         result="turbulence" />
      <feDisplacementMap
         in2="turbulence"
         id="feDisplacementMap4889"
         in="composite3"
         xChannelSelector="R"
         scale="42.5"
         yChannelSelector="G"
         result="map" />
      <feColorMatrix
         id="feColorMatrix4891"
         values="1 0 0 0 0 0 1 0 0 0 0 0 1 0 0 0 0 0 40.41 -11.14 "
         result="colormatrix" />
      <feComposite
         in2="colormatrix"
         id="feComposite4893"
         in="composite3"
         operator="atop"
         result="fbSourceGraphic" />
      <feColorMatrix
         result="fbSourceGraphicAlpha"
         in="fbSourceGraphic"
         values="0 0 0 -1 0 0 0 0 -1 0 0 0 0 -1 0 0 0 0 1 0"
         id="feColorMatrix4895" />
      <feGaussianBlur
         id="feGaussianBlur4897"
         stdDeviation="3.97 6.69"
         result="blur"
         in="fbSourceGraphic" />
      <feComposite
         in2="blur"
         id="feComposite4899"
         in="fbSourceGraphic"
         operator="atop"
         result="composite1" />
      <feComposite
         in2="composite1"
         id="feComposite4901"
         operator="in"
         result="composite2" />
      <feComposite
         in2="composite2"
         id="feComposite4903"
         operator="in"
         result="composite3" />
      <feTurbulence
         id="feTurbulence4905"
         type="fractalNoise"
         numOctaves="3"
         seed="35"
         baseFrequency="0.4949 0.614"
         result="turbulence" />
      <feDisplacementMap
         in2="turbulence"
         id="feDisplacementMap4907"
         in="composite3"
         xChannelSelector="R"
         scale="42.5"
         yChannelSelector="G"
         result="map" />
      <feColorMatrix
         id="feColorMatrix4909"
         values="1 0 0 0 0 0 1 0 0 0 0 0 1 0 0 0 0 0 40.41 -11.14 "
         result="colormatrix" />
      <feComposite
         in2="colormatrix"
         id="feComposite4911"
         in="composite3"
         operator="atop"
         result="fbSourceGraphic" />
      <feColorMatrix
         result="fbSourceGraphicAlpha"
         in="fbSourceGraphic"
         values="0 0 0 -1 0 0 0 0 -1 0 0 0 0 -1 0 0 0 0 1 0"
         id="feColorMatrix4913" />
      <feGaussianBlur
         id="feGaussianBlur4915"
         stdDeviation="3.97 6.69"
         result="blur"
         in="fbSourceGraphic" />
      <feComposite
         in2="blur"
         id="feComposite4917"
         in="fbSourceGraphic"
         operator="atop"
         result="composite1" />
      <feComposite
         in2="composite1"
         id="feComposite4919"
         operator="in"
         result="composite2" />
      <feComposite
         in2="composite2"
         id="feComposite4921"
         operator="in"
         result="composite3" />
      <feTurbulence
         id="feTurbulence4923"
         type="fractalNoise"
         numOctaves="3"
         seed="35"
         baseFrequency="0.4949 0.614"
         result="turbulence" />
      <feDisplacementMap
         in2="turbulence"
         id="feDisplacementMap4925"
         in="composite3"
         xChannelSelector="R"
         scale="42.5"
         yChannelSelector="G"
         result="map" />
      <feColorMatrix
         id="feColorMatrix4927"
         values="1 0 0 0 0 0 1 0 0 0 0 0 1 0 0 0 0 0 40.41 -11.14 "
         result="colormatrix" />
      <feComposite
         in2="colormatrix"
         id="feComposite4929"
         in="composite3"
         operator="atop"
         result="composite4" />
    </filter>
  </defs>
  <sodipodi:namedview
     id="base"
     pagecolor="#ffffff"
     bordercolor="#666666"
     borderopacity="1.0"
     inkscape:pageopacity="0.0"
     inkscape:pageshadow="2"
     inkscape:zoom="0.27476149"
     inkscape:cx="170.68042"
     inkscape:cy="367.7449"
     inkscape:document-units="mm"
     inkscape:current-layer="layer1"
     showgrid="false"
     inkscape:window-width="1024"
     inkscape:window-height="748"
     inkscape:window-x="0"
     inkscape:window-y="20"
     inkscape:window-maximized="1"
     inkscape:document-rotation="0"
     fit-margin-top="0"
     fit-margin-left="0"
     fit-margin-right="0"
     fit-margin-bottom="0" />
  <metadata
     id="metadata5">
    <rdf:RDF>
      <cc:Work
         rdf:about="">
        <dc:format>image/svg+xml</dc:format>
        <dc:type
           rdf:resource="http://purl.org/dc/dcmitype/StillImage" />
        <dc:title />
      </cc:Work>
    </rdf:RDF>
  </metadata>
  <g
     inkscape:label="Layer 1"
     inkscape:groupmode="layer"
     id="layer1"
     transform="translate(-20.410907,-63.046499)">
    <g
       aria-label="the
glass
pixel"
       transform="scale(0.85972436,1.1631635)"
       id="text3734-3"
       style="font-style:normal;font-variant:normal;font-weight:normal;font-stretch:normal;font-size:30.4319px;line-height:1.25;font-family:'Bulgarian Courier';-inkscape-font-specification:'Bulgarian Courier, Normal';font-variant-ligatures:normal;font-variant-caps:normal;font-variant-numeric:normal;font-variant-east-asian:normal;letter-spacing:0px;word-spacing:0px;fill:#000000;fill-opacity:1;stroke:none;stroke-width:0.760799">
      <path
         d="m 101.80416,79.807833 h 6.75588 q 0.45648,0 0.60864,0.182591 0.18259,0.15216 0.24345,0.456479 0,0.273887 -0.21302,0.456478 -0.15216,0.182592 -0.63907,0.182592 h -6.75588 v 8.307909 q 0,1.065116 0.85209,1.795482 0.88253,0.730365 2.55628,0.730365 1.21728,0 2.64757,-0.334751 1.46074,-0.365182 2.37369,-0.882525 l 0.48691,-0.213023 q 0.24346,0 0.42605,0.213023 0.18259,0.15216 0.18259,0.426047 0,0.213023 -0.21302,0.395615 -0.45648,0.517342 -2.31283,1.095548 -1.82591,0.547774 -3.49966,0.547774 -2.22153,0 -3.49967,-1.004253 -1.27814,-1.034684 -1.27814,-2.769302 v -8.307909 h -2.282395 q -0.456479,0 -0.63907,-0.15216 -0.15216,-0.182591 -0.213024,-0.48691 0,-0.273887 0.182592,-0.456479 0.213023,-0.182591 0.669502,-0.182591 h 2.282395 v -3.68226 q 0,-0.456478 0.18259,-0.63907 0.18259,-0.182591 0.45648,-0.182591 0.27388,0 0.45648,0.182591 0.18259,0.182592 0.18259,0.63907 z"
         style="font-style:normal;font-variant:normal;font-weight:normal;font-stretch:normal;font-size:30.4319px;font-family:'Bulgarian Courier';-inkscape-font-specification:'Bulgarian Courier, Normal';font-variant-ligatures:normal;font-variant-caps:normal;font-variant-numeric:normal;font-variant-east-asian:normal;text-align:center;text-anchor:middle;stroke-width:0.760799"
         id="path996" />
      <path
         d="m 118.51122,74.025772 v 7.699271 q 1.12598,-1.247708 2.25196,-1.795482 1.12599,-0.578206 2.46499,-0.578206 1.46073,0 2.46498,0.547774 0.97382,0.426046 1.73462,1.552027 0.6695,1.095548 0.6695,2.25196 v 7.729703 h 1.39987 q 0.39561,0 0.60864,0.182591 0.21302,0.15216 0.21302,0.426047 0,0.273887 -0.18259,0.456478 -0.18259,0.182592 -0.63907,0.182592 h -4.04744 q -0.42605,0 -0.63907,-0.182592 -0.21303,-0.182591 -0.21303,-0.456478 0,-0.243455 0.1826,-0.426047 0.18259,-0.182591 0.6695,-0.182591 h 1.36943 v -7.638407 q 0,-1.339004 -0.97382,-2.282393 -0.97382,-0.882525 -2.70844,-0.882525 -1.339,0 -2.31282,0.63907 -0.73037,0.517343 -2.31283,2.251961 v 7.912294 h 1.39987 q 0.45648,0 0.60864,0.152159 0.18259,0.15216 0.24345,0.456479 0,0.273887 -0.21302,0.456478 -0.15216,0.182592 -0.63907,0.182592 h -4.04744 q -0.45648,0 -0.63907,-0.15216 -0.15216,-0.182591 -0.21302,-0.48691 0,-0.243455 0.18259,-0.426047 0.21302,-0.182591 0.6695,-0.182591 h 1.39987 V 75.303912 h -1.67376 q -0.45648,0 -0.63907,-0.182592 -0.18259,-0.182591 -0.18259,-0.456478 0,-0.304319 0.18259,-0.456479 0.18259,-0.182591 0.63907,-0.182591 z"
         style="font-style:normal;font-variant:normal;font-weight:normal;font-stretch:normal;font-size:30.4319px;font-family:'Bulgarian Courier';-inkscape-font-specification:'Bulgarian Courier, Normal';font-variant-ligatures:normal;font-variant-caps:normal;font-variant-numeric:normal;font-variant-east-asian:normal;text-align:center;text-anchor:middle;stroke-width:0.760799"
         id="path998" />
      <path
         d="m 147.63451,86.533283 h -12.72054 q 0.33475,2.40412 2.03894,3.895283 1.70419,1.491163 4.1996,1.491163 1.36944,0 2.92146,-0.456478 0.7608,-0.243455 1.36944,-0.517343 0.60864,-0.304319 1.12598,-0.699933 0.24346,-0.213024 0.48691,-0.213024 0.24346,0 0.42605,0.182592 0.18259,0.182591 0.18259,0.426046 0,0.273888 -0.24346,0.486911 -0.6695,0.699934 -2.52584,1.369435 -1.82592,0.669502 -3.74313,0.669502 -3.19535,0 -5.35601,-2.099801 -2.13024,-2.099801 -2.13024,-5.082127 0,-2.738871 2.00851,-4.686513 2.00851,-1.947641 4.9604,-1.947641 3.07362,0 5.02126,2.008505 1.97808,1.978073 1.97808,5.173423 z m -1.27814,-1.247708 q -0.30432,-2.038937 -1.91721,-3.347509 -1.58246,-1.308572 -3.80399,-1.308572 -2.13023,0 -3.74312,1.308572 -1.58246,1.27814 -1.97808,3.347509 z"
         style="font-style:normal;font-variant:normal;font-weight:normal;font-stretch:normal;font-size:30.4319px;font-family:'Bulgarian Courier';-inkscape-font-specification:'Bulgarian Courier, Normal';font-variant-ligatures:normal;font-variant-caps:normal;font-variant-numeric:normal;font-variant-east-asian:normal;text-align:center;text-anchor:middle;stroke-width:0.760799"
         id="path1000" />
      <path
         d="m 90.300945,120.1301 v -2.28239 h 2.921463 q 0.456478,0 0.608638,0.18259 0.182591,0.15216 0.243455,0.45648 0,0.27389 -0.213024,0.45648 -0.182591,0.18259 -0.639069,0.18259 h -1.673755 v 12.44664 q 0,1.24771 -0.547774,2.25197 -0.304319,0.5782 -1.186844,1.30857 -0.852094,0.73036 -1.491163,1.03468 -0.699934,0.27389 -1.825914,0.27389 h -3.560533 q -0.456478,0 -0.63907,-0.18259 -0.182591,-0.15216 -0.182591,-0.42605 0,-0.27389 0.182591,-0.45648 0.182592,-0.18259 0.63907,-0.18259 h 3.590964 q 0.426047,0 0.912957,-0.0913 0.486911,-0.0913 1.065117,-0.45648 0.943389,-0.57821 1.460731,-1.64333 0.334751,-0.6695 0.334751,-1.61289 v -3.74312 q -2.038937,2.7693 -5.173423,2.7693 -2.525848,0 -4.412625,-1.91721 -1.886778,-1.94764 -1.886778,-4.59521 0,-2.70844 1.856346,-4.59522 1.886777,-1.91721 4.443057,-1.91721 3.164918,0 5.173423,2.73887 z m 0,3.77356 q 0,-2.1911 -1.521595,-3.7127 -1.521595,-1.52159 -3.590964,-1.52159 -2.069369,0 -3.590964,1.52159 -1.491163,1.49117 -1.491163,3.7127 0,2.19109 1.491163,3.71269 1.491163,1.52159 3.590964,1.52159 2.099801,0 3.590964,-1.52159 1.521595,-1.5216 1.521595,-3.71269 z"
         style="font-style:normal;font-variant:normal;font-weight:normal;font-stretch:normal;font-size:30.4319px;font-family:'Bulgarian Courier';-inkscape-font-specification:'Bulgarian Courier, Normal';font-variant-ligatures:normal;font-variant-caps:normal;font-variant-numeric:normal;font-variant-east-asian:normal;text-align:center;text-anchor:middle;stroke-width:0.760799"
         id="path1002" />
      <path
         d="m 104.99951,112.06565 v 17.40704 h 4.89953 q 0.45648,0 0.60864,0.15216 0.18259,0.15216 0.24346,0.45648 0,0.27389 -0.21303,0.45648 -0.15216,0.18259 -0.63907,0.18259 H 98.852263 q -0.456478,0 -0.63907,-0.15216 -0.152159,-0.18259 -0.213023,-0.48691 0,-0.24345 0.182591,-0.42604 0.213024,-0.1826 0.669502,-0.1826 h 4.899537 v -16.1289 h -3.59097 q -0.426042,0 -0.639065,-0.18259 -0.213023,-0.1826 -0.213023,-0.45648 0,-0.27389 0.182591,-0.45648 0.182592,-0.18259 0.669497,-0.18259 z"
         style="font-style:normal;font-variant:normal;font-weight:normal;font-stretch:normal;font-size:30.4319px;font-family:'Bulgarian Courier';-inkscape-font-specification:'Bulgarian Courier, Normal';font-variant-ligatures:normal;font-variant-caps:normal;font-variant-numeric:normal;font-variant-east-asian:normal;text-align:center;text-anchor:middle;stroke-width:0.760799"
         id="path1004" />
      <path
         d="m 126.2105,130.7204 v -1.79548 q -2.73888,2.28239 -5.8125,2.28239 -2.25196,0 -3.5301,-1.12598 -1.24771,-1.15641 -1.24771,-2.79973 0,-1.79549 1.67376,-3.13449 1.67375,-1.36943 4.8691,-1.36943 0.42605,0 0.69994,0 0.30432,0 1.15641,0.12172 0.45648,0.0304 1.03468,0.12173 0.57821,0.0913 1.15642,0.21302 v -2.03893 q 0,-1.00426 -0.94339,-1.76505 -0.94339,-0.7608 -2.8606,-0.7608 -1.49117,0 -4.07788,0.85209 l -0.60863,0.15216 q -0.24346,0 -0.42605,-0.18259 -0.15216,-0.21302 -0.15216,-0.45648 0,-0.27388 0.15216,-0.39561 0.15216,-0.18259 1.67375,-0.60864 2.2824,-0.63907 3.49967,-0.63907 2.34326,0 3.65183,1.15641 1.339,1.15641 1.339,2.64758 v 8.27747 h 1.67376 q 0.42604,0 0.63907,0.1826 0.21302,0.15215 0.21302,0.42604 0,0.27389 -0.18259,0.45648 -0.18259,0.18259 -0.6695,0.18259 z m 0,-6.20811 q -0.88253,-0.24345 -1.82592,-0.36518 -0.91296,-0.12173 -2.0998,-0.12173 -2.73887,0 -4.26047,1.15642 -1.15641,0.88252 -1.15641,2.0998 0,1.09555 0.88253,1.91721 0.94339,0.76079 2.58671,0.76079 1.58246,0 2.95189,-0.60863 1.36944,-0.63907 2.92147,-2.0998 z"
         style="font-style:normal;font-variant:normal;font-weight:normal;font-stretch:normal;font-size:30.4319px;font-family:'Bulgarian Courier';-inkscape-font-specification:'Bulgarian Courier, Normal';font-variant-ligatures:normal;font-variant-caps:normal;font-variant-numeric:normal;font-variant-east-asian:normal;text-align:center;text-anchor:middle;stroke-width:0.760799"
         id="path1006" />
      <path
         d="m 145.01736,118.66937 q 0,-0.39562 0.15216,-0.63907 0.18259,-0.15216 0.45648,-0.18259 0.27389,0 0.45648,0.18259 0.18259,0.18259 0.18259,0.6695 v 2.13023 q 0,0.45648 -0.18259,0.63907 -0.15216,0.15216 -0.45648,0.21303 -0.24345,0 -0.39561,-0.12173 -0.15216,-0.15216 -0.24346,-0.82166 -0.0609,-0.6695 -0.91295,-1.24771 -1.18685,-0.82166 -3.22579,-0.82166 -2.0998,0 -3.25621,0.85209 -0.85209,0.63907 -0.85209,1.4303 0,0.8521 1.03468,1.49116 0.6695,0.36519 2.98233,0.63907 2.31282,0.24346 3.31708,0.63907 1.46073,0.48692 2.16066,1.4303 0.69993,0.94339 0.69993,1.97808 0,1.58246 -1.55202,2.83016 -1.5216,1.24771 -4.47349,1.24771 -2.9519,0 -4.83867,-1.49116 0,0.51734 -0.0609,0.6695 -0.0609,0.12173 -0.21302,0.24346 l -0.33475,0.0913 q -0.27389,0 -0.45648,-0.18259 -0.18259,-0.18259 -0.18259,-0.63907 v -2.58671 q 0,-0.39562 0.15216,-0.63907 0.18259,-0.18259 0.48691,-0.18259 0.24345,0 0.42604,0.18259 0.1826,0.15216 0.21303,0.48691 0,0.69993 0.33475,1.15641 0.45648,0.6695 1.64332,1.18685 1.15641,0.45647 2.79974,0.45647 2.43455,0 3.62139,-0.88252 1.18685,-0.91296 1.18685,-1.94764 0,-1.12598 -1.21728,-1.82592 -1.18684,-0.73036 -3.49967,-0.94339 -2.31282,-0.21302 -3.34751,-0.60863 -1.03468,-0.39562 -1.61289,-1.15642 -0.54777,-0.79122 -0.54777,-1.70418 0,-1.61289 1.58246,-2.55628 1.58246,-0.94339 3.74312,-0.94339 2.58671,0 4.23003,1.27814 z"
         style="font-style:normal;font-variant:normal;font-weight:normal;font-stretch:normal;font-size:30.4319px;font-family:'Bulgarian Courier';-inkscape-font-specification:'Bulgarian Courier, Normal';font-variant-ligatures:normal;font-variant-caps:normal;font-variant-numeric:normal;font-variant-east-asian:normal;text-align:center;text-anchor:middle;stroke-width:0.760799"
         id="path1008" />
      <path
         d="m 163.27646,118.66937 q 0,-0.39562 0.15216,-0.63907 0.18259,-0.15216 0.45648,-0.18259 0.27388,0 0.45647,0.18259 0.1826,0.18259 0.1826,0.6695 v 2.13023 q 0,0.45648 -0.1826,0.63907 -0.15215,0.15216 -0.45647,0.21303 -0.24346,0 -0.39562,-0.12173 -0.15216,-0.15216 -0.24345,-0.82166 -0.0609,-0.6695 -0.91296,-1.24771 -1.18684,-0.82166 -3.22578,-0.82166 -2.0998,0 -3.25622,0.85209 -0.85209,0.63907 -0.85209,1.4303 0,0.8521 1.03469,1.49116 0.6695,0.36519 2.98232,0.63907 2.31283,0.24346 3.31708,0.63907 1.46073,0.48692 2.16066,1.4303 0.69994,0.94339 0.69994,1.97808 0,1.58246 -1.55203,2.83016 -1.52159,1.24771 -4.47349,1.24771 -2.95189,0 -4.83867,-1.49116 0,0.51734 -0.0609,0.6695 -0.0609,0.12173 -0.21303,0.24346 l -0.33475,0.0913 q -0.27389,0 -0.45648,-0.18259 -0.18259,-0.18259 -0.18259,-0.63907 v -2.58671 q 0,-0.39562 0.15216,-0.63907 0.18259,-0.18259 0.48691,-0.18259 0.24346,0 0.42605,0.18259 0.18259,0.15216 0.21302,0.48691 0,0.69993 0.33475,1.15641 0.45648,0.6695 1.64333,1.18685 1.15641,0.45647 2.79973,0.45647 2.43455,0 3.6214,-0.88252 1.18684,-0.91296 1.18684,-1.94764 0,-1.12598 -1.21728,-1.82592 -1.18684,-0.73036 -3.49966,-0.94339 -2.31283,-0.21302 -3.34751,-0.60863 -1.03469,-0.39562 -1.61289,-1.15642 -0.54778,-0.79122 -0.54778,-1.70418 0,-1.61289 1.58246,-2.55628 1.58246,-0.94339 3.74312,-0.94339 2.58672,0 4.23004,1.27814 z"
         style="font-style:normal;font-variant:normal;font-weight:normal;font-stretch:normal;font-size:30.4319px;font-family:'Bulgarian Courier';-inkscape-font-specification:'Bulgarian Courier, Normal';font-variant-ligatures:normal;font-variant-caps:normal;font-variant-numeric:normal;font-variant-east-asian:normal;text-align:center;text-anchor:middle;stroke-width:0.760799"
         id="path1010" />
      <path
         d="m 81.41483,155.88758 v 2.2824 q 1.065117,-1.30858 2.373688,-2.00851 1.308572,-0.73037 3.012759,-0.73037 1.795482,0 3.37794,0.8521 1.612891,0.85209 2.434553,2.40412 0.852093,1.52159 0.852093,3.25621 0,2.67801 -1.91721,4.59522 -1.91721,1.91721 -4.716945,1.91721 -3.347509,0 -5.416878,-2.73887 v 7.51668 h 3.012758 q 0.456479,0 0.63907,0.18259 0.182592,0.18259 0.182592,0.45648 0,0.30431 -0.182592,0.45647 -0.152159,0.15216 -0.63907,0.15216 h -5.964652 q -0.456479,0 -0.63907,-0.18259 -0.182591,-0.15216 -0.182591,-0.42604 0,-0.27389 0.152159,-0.42605 0.15216,-0.15216 0.669502,-0.21302 h 1.673754 v -16.06805 h -1.673754 q -0.395615,0 -0.608638,-0.18259 -0.213023,-0.18259 -0.213023,-0.45648 0,-0.27388 0.182591,-0.45648 0.182591,-0.18259 0.63907,-0.18259 z m 10.803325,6.05595 q 0,-2.13023 -1.582459,-3.68226 -1.552027,-1.55203 -3.803988,-1.55203 -2.25196,0 -3.834419,1.55203 -1.582459,1.5216 -1.582459,3.68226 0,2.13023 1.552027,3.68226 1.552027,1.55203 3.864851,1.55203 2.251961,0 3.803988,-1.55203 1.582459,-1.55203 1.582459,-3.68226 z"
         style="font-style:normal;font-variant:normal;font-weight:normal;font-stretch:normal;font-size:30.4319px;font-family:'Bulgarian Courier';-inkscape-font-specification:'Bulgarian Courier, Normal';font-variant-ligatures:normal;font-variant-caps:normal;font-variant-numeric:normal;font-variant-east-asian:normal;text-align:center;text-anchor:middle;stroke-width:0.760799"
         id="path1012" />
      <path
         d="m 104.96908,149.49688 v 3.22579 h -1.82592 v -3.22579 z m 0.0609,6.3907 v 11.62499 h 4.89953 q 0.45648,0 0.60864,0.15216 0.18259,0.15216 0.24346,0.45648 0,0.27388 -0.21303,0.45648 -0.18259,0.18259 -0.63907,0.18259 H 98.882695 q -0.456478,0 -0.63907,-0.15216 -0.152159,-0.18259 -0.213023,-0.48691 0,-0.24346 0.182591,-0.42605 0.213024,-0.18259 0.669502,-0.18259 h 4.899535 v -10.34685 h -3.65183 q -0.395612,0 -0.608635,-0.15216 -0.182591,-0.18259 -0.243455,-0.48691 0,-0.27388 0.182591,-0.45648 0.213024,-0.18259 0.669499,-0.18259 z"
         style="font-style:normal;font-variant:normal;font-weight:normal;font-stretch:normal;font-size:30.4319px;font-family:'Bulgarian Courier';-inkscape-font-specification:'Bulgarian Courier, Normal';font-variant-ligatures:normal;font-variant-caps:normal;font-variant-numeric:normal;font-variant-east-asian:normal;text-align:center;text-anchor:middle;stroke-width:0.760799"
         id="path1014" />
      <path
         d="m 123.47162,162.03483 5.7212,5.47774 q 0.60864,0 0.73037,0.0609 l 0.24345,0.21303 0.12173,0.33475 q 0,0.27388 -0.21302,0.45648 -0.15216,0.18259 -0.63907,0.18259 h -4.01701 q -0.45648,0 -0.63907,-0.15216 -0.15216,-0.18259 -0.21303,-0.48691 0,-0.24346 0.18259,-0.42605 0.21303,-0.18259 0.66951,-0.18259 h 2.06937 l -4.86911,-4.65608 -4.80824,4.65608 h 2.06937 q 0.45648,0 0.63907,0.18259 0.18259,0.15216 0.18259,0.42605 0,0.27388 -0.18259,0.45648 -0.18259,0.18259 -0.63907,0.18259 h -4.04744 q -0.45648,0 -0.63907,-0.15216 -0.15216,-0.18259 -0.21303,-0.48691 0.0609,-0.27389 0.12173,-0.36519 0.0913,-0.12172 0.24346,-0.18259 l 0.69993,-0.0609 5.7212,-5.47774 -5.08213,-4.86911 -0.6695,-0.0609 q -0.0913,-0.0304 -0.24346,-0.24346 l -0.12172,-0.33475 q 0,-0.27388 0.18259,-0.45648 0.21302,-0.18259 0.6695,-0.18259 h 3.40837 q 0.45648,0 0.63907,0.18259 0.18259,0.1826 0.18259,0.45648 0,0.27389 -0.18259,0.45648 -0.18259,0.18259 -0.63907,0.18259 h -1.49116 l 4.1996,4.04745 4.23004,-4.04745 h -1.46074 q -0.42604,0 -0.63907,-0.18259 -0.21302,-0.18259 -0.21302,-0.45648 0,-0.27388 0.18259,-0.45648 0.18259,-0.18259 0.6695,-0.18259 h 3.37795 q 0.45647,0 0.63907,0.21303 0.21302,0.18259 0.21302,0.42604 0,0.18259 -0.0913,0.33475 -0.0913,0.12173 -0.27388,0.24346 l -0.66951,0.0609 z"
         style="font-style:normal;font-variant:normal;font-weight:normal;font-stretch:normal;font-size:30.4319px;font-family:'Bulgarian Courier';-inkscape-font-specification:'Bulgarian Courier, Normal';font-variant-ligatures:normal;font-variant-caps:normal;font-variant-numeric:normal;font-variant-east-asian:normal;text-align:center;text-anchor:middle;stroke-width:0.760799"
         id="path1016" />
      <path
         d="m 147.63451,162.61303 h -12.72054 q 0.33475,2.40412 2.03894,3.89529 1.70419,1.49116 4.1996,1.49116 1.36944,0 2.92147,-0.45648 0.76079,-0.24345 1.36943,-0.51734 0.60864,-0.30432 1.12598,-0.69994 0.24346,-0.21302 0.48691,-0.21302 0.24346,0 0.42605,0.18259 0.18259,0.18259 0.18259,0.42605 0,0.27389 -0.24346,0.48691 -0.6695,0.69993 -2.52584,1.36944 -1.82592,0.6695 -3.74313,0.6695 -3.19535,0 -5.35601,-2.0998 -2.13023,-2.09981 -2.13023,-5.08213 0,-2.73887 2.0085,-4.68651 2.00851,-1.94765 4.9604,-1.94765 3.07362,0 5.02126,2.00851 1.97808,1.97807 1.97808,5.17342 z m -1.27814,-1.2477 q -0.30432,-2.03894 -1.91721,-3.34751 -1.58246,-1.30858 -3.80399,-1.30858 -2.13023,0 -3.74312,1.30858 -1.58246,1.27814 -1.97808,3.34751 z"
         style="font-style:normal;font-variant:normal;font-weight:normal;font-stretch:normal;font-size:30.4319px;font-family:'Bulgarian Courier';-inkscape-font-specification:'Bulgarian Courier, Normal';font-variant-ligatures:normal;font-variant-caps:normal;font-variant-numeric:normal;font-variant-east-asian:normal;text-align:center;text-anchor:middle;stroke-width:0.760799"
         id="path1018" />
      <path
         d="m 159.77679,150.10552 v 17.40705 h 4.89954 q 0.45647,0 0.60863,0.15216 0.1826,0.15216 0.24346,0.45648 0,0.27388 -0.21302,0.45648 -0.15216,0.18259 -0.63907,0.18259 h -11.04678 q -0.45648,0 -0.63907,-0.15216 -0.15216,-0.18259 -0.21303,-0.48691 0,-0.24346 0.18259,-0.42605 0.21303,-0.18259 0.66951,-0.18259 h 4.89953 v -16.12891 h -3.59096 q -0.42605,0 -0.63907,-0.18259 -0.21303,-0.18259 -0.21303,-0.45648 0,-0.27389 0.1826,-0.45648 0.18259,-0.18259 0.6695,-0.18259 z"
         style="font-style:normal;font-variant:normal;font-weight:normal;font-stretch:normal;font-size:30.4319px;font-family:'Bulgarian Courier';-inkscape-font-specification:'Bulgarian Courier, Normal';font-variant-ligatures:normal;font-variant-caps:normal;font-variant-numeric:normal;font-variant-east-asian:normal;text-align:center;text-anchor:middle;stroke-width:0.760799"
         id="path1020" />
    </g>
    <rect
       id="rect3780-7"
       width="167.76915"
       height="167.76917"
       x="20.795794"
       y="63.431385"
       style="fill:none;stroke:#000000;stroke-width:0.35277778;stroke-opacity:1;stroke-miterlimit:4;stroke-dasharray:none"
       inkscape:export-xdpi="300.01236"
       inkscape:export-ydpi="300.01236" />
  </g>
</svg>
